<!DOCTYPE svg PUBLIC "-//W3C//DTD SVG 1.1//EN" "http://www.w3.org/Graphics/SVG/1.1/DTD/svg11.dtd">
<!-- Uploaded to: SVG Repo, www.svgrepo.com, Transformed by: SVG Repo Mixer Tools -->
<svg fill="#000000" height="189px" width="189px" version="1.1" id="Capa_1" xmlns="http://www.w3.org/2000/svg" xmlns:xlink="http://www.w3.org/1999/xlink" viewBox="0 0 372.17 372.17" xml:space="preserve" stroke="#000000" stroke-width="0.0037216600000000003">
<g id="SVGRepo_bgCarrier" stroke-width="0"/>
<g id="SVGRepo_tracerCarrier" stroke-linecap="round" stroke-linejoin="round" stroke="#CCCCCC" stroke-width="3.72166"/>
<g id="SVGRepo_iconCarrier"> <g> <g id="Layer_5_14_"> <g> <path d="M311.301,37.38h-63.969c-3,0-3.287-2.445-3.865-3.57c-2.894-5.63-8.752-9.495-15.508-9.495h-15.938 C211.149,10.762,199.852,0,186.082,0s-25.067,10.762-25.939,24.315h-15.938c-6.675,0-12.474,3.772-15.403,9.294 c-0.627,1.183-1.469,3.771-4.219,3.771H60.864c-9.229,0-16.779,7.551-16.779,16.779v301.229c0,9.228,7.55,16.778,16.779,16.778 h250.438c9.228,0,16.779-7.55,16.779-16.778V54.159C328.08,44.931,320.529,37.38,311.301,37.38z M303.08,330.388 c0,9.229-7.551,16.779-16.779,16.779H85.863c-9.229,0-16.779-7.55-16.779-16.779V79.159c0-9.228,7.55-16.779,16.779-16.779 h39.094c2.75,0,3.173,2.476,3.762,3.613c2.902,5.607,8.747,9.452,15.485,9.452h83.755c7.21,0,13.396-4.401,16.051-10.654 c0.33-0.777,0.821-2.412,3.571-2.412H286.3c9.228,0,16.779,7.551,16.779,16.779L303.08,330.388L303.08,330.388z"/> <path d="M97.543,122.5h124c3.866,0,7-3.134,7-7s-3.134-7-7-7h-124c-3.866,0-7,3.134-7,7S93.677,122.5,97.543,122.5z"/> <path d="M97.543,214.416h124c3.866,0,7-3.133,7-7c0-3.866-3.134-7-7-7h-124c-3.866,0-7,3.134-7,7 C90.543,211.283,93.677,214.416,97.543,214.416z"/> <path d="M253.043,154.458h-155.5c-3.866,0-7,3.134-7,7s3.134,7,7,7h155.5c3.866,0,7-3.134,7-7S256.91,154.458,253.043,154.458z"/> <path d="M253.043,246.375h-155.5c-3.866,0-7,3.134-7,7s3.134,7,7,7h155.5c3.866,0,7-3.134,7-7S256.91,246.375,253.043,246.375z"/> <path d="M253.043,292.333h-43.965c-3.866,0-7,3.134-7,7s3.134,7,7,7h43.965c3.866,0,7-3.134,7-7S256.91,292.333,253.043,292.333z "/> </g> </g> </g> </g>
</svg>